<svg xmlns="http://www.w3.org/2000/svg" version="1.1" xmlns:xlink="http://www.w3.org/1999/xlink" xmlns:svgjs="http://svgjs.dev/svgjs" width="1000" height="707" viewBox="0 0 1000 707"><g transform="matrix(1,0,0,1,-0.6060606060606233,0)"><svg viewBox="0 0 396 280" data-background-color="#ffffff" preserveAspectRatio="xMidYMid meet" height="707" width="1000" xmlns="http://www.w3.org/2000/svg" xmlns:xlink="http://www.w3.org/1999/xlink"><g id="tight-bounds" transform="matrix(1,0,0,1,0.2400000000000091,0)"><svg viewBox="0 0 395.52 280" height="280" width="395.52"><g><svg viewBox="0 0 395.52 280" height="280" width="395.52"><g><svg viewBox="0 0 395.52 280" height="280" width="395.52"><g><svg viewBox="0 0 395.52 280" height="280" width="395.52"><g><svg viewBox="0 0 395.52 280" height="280" width="395.52"><g transform="matrix(1,0,0,1,104.53504196836558,94.76351943012975)"><svg viewBox="0 0 186.44991606326883 90.47296113974049" height="90.47296113974049" width="186.44991606326883"><g><svg version="1.1" xmlns="http://www.w3.org/2000/svg" xmlns:xlink="http://www.w3.org/1999/xlink" x="0" y="0" viewBox="-5 20.73699951171875 100 48.52400207519531" enable-background="new -5 20.737 100 48.524" xml:space="preserve" width="186.44991606326883" height="90.47296113974049" class="icon-o-0" data-fill-palette-color="accent" id="o-0"><rect x="-5" y="64.739" width="100" height="4.522" fill="#ed3b43" data-fill-palette-color="accent"></rect><polygon points="73.607,58.826 16.044,58.826 17.435,51.87 72.216,51.87 " fill="#ed3b43" data-fill-palette-color="accent"></polygon><path d="M45 47.085h26.174c0 0-5.13-26.348-14.435-26.348-5.479 0-5.646 3.413-11.739 3.413-5.993 0-6.262-3.413-11.739-3.413-9.305 0-14.435 26.348-14.435 26.348H45z" fill="#ed3b43" data-fill-palette-color="accent"></path></svg></g></svg></g><path d="M87.273 108.774L60.812 99.653C61.818 95.792 62.761 92.585 63.641 90.032V90.032L63.762 89.681C64.723 86.893 66.022 85.156 67.659 84.469V84.469C69.058 83.897 70.977 84.032 73.417 84.873V84.873C76.545 85.951 78.718 87.199 79.934 88.615V88.615C81.166 90.065 81.617 91.918 81.285 94.172V94.172C81.901 93.946 82.543 93.733 83.214 93.532V93.532L85.036 93.015 93.462 90.817 92.266 94.287 84.614 96.115C82.537 96.644 81.135 97.08 80.409 97.423V97.423L80.343 97.613C80.047 98.43 79.758 99.218 79.476 99.976V99.976L78.505 102.453 88.289 105.825ZM64.038 97.466L76.164 101.645C76.639 100.452 77.325 98.553 78.223 95.949V95.949C78.959 93.812 78.861 92.148 77.928 90.957V90.957C77.099 89.936 75.373 88.973 72.75 88.069V88.069C70.538 87.307 68.922 87.298 67.901 88.042V88.042C67.296 88.484 66.853 89.042 66.571 89.716 66.285 90.381 66.053 90.973 65.875 91.491 65.698 92.003 65.53 92.5 65.371 92.983 65.212 93.465 65.057 93.946 64.906 94.424 64.755 94.902 64.609 95.389 64.466 95.885V95.885ZM105.252 72.67L83.284 55.183 93.195 42.731 95.321 44.424 87.352 54.435 94.931 60.468 101.358 52.395 103.468 54.075 97.042 62.148 105.084 68.55 113.359 58.154 115.469 59.834ZM132.034 46.796L117.247 23.116C117.247 23.116 117.988 22.574 119.471 21.491V21.491C121.69 19.845 123.495 18.588 124.884 17.72 126.279 16.849 127.426 16.212 128.325 15.808 129.22 15.399 130.064 15.128 130.856 14.996 131.652 14.869 132.414 14.898 133.143 15.081 133.863 15.262 134.586 15.618 135.312 16.15V16.15C136.661 17.136 138.148 18.931 139.774 21.533V21.533L141.282 23.949C143.209 27.034 144.442 29.515 144.984 31.391V31.391C145.605 33.573 145.486 35.496 144.626 37.16V37.16C143.745 38.892 141.941 40.61 139.213 42.313V42.313ZM132.743 18.511C131.997 18.149 131.176 18.039 130.28 18.181 129.389 18.32 128.212 18.846 126.749 19.76 125.286 20.673 123.441 21.947 121.215 23.582V23.582L133.288 42.916 138.238 39.824C140.166 38.621 141.401 37.412 141.944 36.198V36.198C142.475 35.015 142.428 33.578 141.805 31.887V31.887C141.313 30.492 140.211 28.425 138.501 25.686V25.686L136.987 23.262C135.372 20.676 133.958 19.092 132.743 18.511ZM167.764 29.95L172.085 0.722 176.295 0 190.714 26.017 187.443 26.577 183.303 18.924 172.154 20.834 170.947 29.404ZM172.542 18.112L181.991 16.493 174.618 2.8 174.409 4.963ZM221.389 26.264L221.547 26.29C223.514 26.603 225.555 26.54 227.67 26.099V26.099L228.074 28.722C227.083 29.038 225.926 29.185 224.602 29.163 223.278 29.148 222.12 29.062 221.13 28.904V28.904L220.872 28.863C216.575 28.177 213.89 26.483 212.818 23.78V23.78C212.166 22.139 211.946 20.036 212.159 17.471V17.471C212.268 16.236 212.438 14.895 212.668 13.449 212.9 11.997 213.16 10.62 213.449 9.319 213.737 8.024 214.087 6.848 214.499 5.79 214.917 4.74 215.423 3.822 216.015 3.036 216.614 2.252 217.347 1.624 218.214 1.153V1.153C219.983 0.169 222.365-0.084 225.363 0.394V0.394C227.297 0.703 228.832 1.076 229.967 1.514 231.11 1.947 231.873 2.276 232.257 2.499V2.499L230.979 5.23C228.759 4.037 226.811 3.306 225.134 3.039 223.463 2.772 222.144 2.768 221.175 3.027 220.212 3.293 219.403 3.847 218.747 4.691V4.691C217.607 6.147 216.68 9.117 215.965 13.599V13.599L215.752 14.936C215.163 18.627 215.231 21.278 215.956 22.89V22.89C216.759 24.69 218.569 25.815 221.389 26.264ZM247.447 37.414L260.401 12.502 274.52 19.844 273.267 22.255 261.914 16.352 257.445 24.946 266.6 29.707 265.355 32.1 256.2 27.34 251.458 36.459 263.247 42.589 262.002 44.983ZM275.534 56.131L302.493 44.04 305.368 47.201 291.202 73.356 288.969 70.901 293.191 63.292 285.58 54.924 277.707 58.519ZM288.083 53.786L294.533 60.878 302.105 47.295 300.17 48.282ZM301.501 91.332L327.334 80.328 328.305 82.607 314.591 102.487 312.055 105.388 315.441 103.51 333.865 95.662 334.977 98.273 309.145 109.276 308.119 106.868 321.818 87.082 324.082 84.362 320.802 86.206 302.617 93.952ZM66.517 182.789L93.319 173.521C94.925 177.224 96.176 180.371 97.072 182.961V182.961L97.193 183.312C98.17 186.136 98.223 188.335 97.352 189.91V189.91C96.587 191.235 94.969 192.325 92.499 193.18V193.18C89.333 194.274 86.823 194.636 84.969 194.266V194.266C83.077 193.888 81.561 192.693 80.42 190.682V190.682C80.065 191.251 79.686 191.824 79.285 192.401V192.401L78.144 193.952 72.806 200.976 71.59 197.46 76.55 191.214C77.874 189.497 78.717 188.275 79.081 187.548V187.548L79.016 187.359C78.74 186.52 78.481 185.711 78.24 184.932V184.932L77.463 182.346 67.55 185.774ZM92.115 177.28L79.832 181.527C80.201 182.779 80.841 184.722 81.753 187.357V187.357C82.502 189.524 83.622 190.788 85.112 191.15V191.15C86.405 191.453 88.382 191.144 91.042 190.224V190.224C93.285 189.449 94.578 188.443 94.921 187.206V187.206C95.129 186.477 95.135 185.757 94.939 185.046 94.749 184.334 94.563 183.716 94.382 183.191 94.203 182.673 94.026 182.172 93.851 181.687 93.677 181.203 93.5 180.723 93.321 180.247 93.143 179.771 92.956 179.292 92.76 178.807V178.807ZM88.072 225.371L110.321 207.641 120.364 220.244 118.215 221.957 110.141 211.824 102.463 217.942 108.975 226.114 106.834 227.82 100.322 219.648 92.181 226.135 100.568 236.66 98.427 238.366ZM120.343 256.141L135.32 232.154C135.32 232.154 136.145 232.587 137.796 233.452V233.452C140.278 234.741 142.222 235.825 143.628 236.703 145.04 237.585 146.132 238.342 146.904 238.973 147.678 239.614 148.3 240.266 148.768 240.929 149.237 241.593 149.55 242.296 149.708 243.041 149.865 243.786 149.863 244.604 149.7 245.496V245.496C149.401 247.161 148.427 249.315 146.777 251.958V251.958L145.253 254.399C143.302 257.523 141.592 259.75 140.123 261.08V261.08C138.416 262.615 136.611 263.36 134.709 263.314V263.314C132.741 263.284 130.374 262.405 127.607 260.677V260.677ZM146.404 244.205C146.399 243.367 146.135 242.572 145.612 241.819 145.088 241.067 144.084 240.227 142.598 239.299 141.118 238.375 139.139 237.266 136.661 235.971V235.971L124.429 255.56 129.44 258.688C131.396 259.91 133.048 260.496 134.395 260.447V260.447C135.709 260.4 136.997 259.719 138.26 258.403V258.403C139.304 257.337 140.694 255.414 142.429 252.636V252.636L143.963 250.177C145.599 247.557 146.413 245.567 146.404 244.206ZM163.944 276.02L177.925 249.549 182.195 250.28 187.201 280 183.88 279.432 182.502 270.721 171.214 268.789 167.166 276.571ZM172.512 266.316L182.07 267.951 179.647 252.388 178.715 254.385ZM224.14 275.244L224.308 275.217C226.302 274.9 228.248 274.194 230.145 273.1V273.1L231.351 275.508C230.495 276.125 229.428 276.63 228.15 277.023 226.873 277.422 225.733 277.702 224.729 277.861V277.861L224.472 277.902C220.114 278.596 216.994 277.813 215.111 275.553V275.553C213.965 274.179 213.088 272.22 212.481 269.676V269.676C212.198 268.455 211.941 267.112 211.708 265.646 211.473 264.174 211.29 262.768 211.158 261.428 211.026 260.089 210.998 258.844 211.072 257.695 211.14 256.547 211.336 255.504 211.661 254.565 211.991 253.619 212.498 252.784 213.181 252.059V252.059C214.574 250.558 216.789 249.566 219.826 249.083V249.083C221.787 248.771 223.384 248.645 224.619 248.706 225.848 248.768 226.682 248.845 227.124 248.937V248.937L226.763 251.97C224.241 251.518 222.135 251.427 220.444 251.695 218.748 251.965 217.476 252.378 216.63 252.932 215.778 253.487 215.172 254.277 214.814 255.302V255.302C214.173 257.063 214.215 260.214 214.937 264.757V264.757L215.153 266.113C215.747 269.844 216.647 272.374 217.854 273.706V273.706C219.192 275.185 221.288 275.698 224.14 275.244ZM257.406 266.505L244.309 241.25 258.615 233.831 259.88 236.27 248.378 242.235 252.898 250.95 262.174 246.14 263.434 248.57 254.158 253.38 258.95 262.621 270.897 256.426 272.157 258.856ZM291.549 243.222L276.808 217.167 279.727 213.966 307.451 225.788 305.18 228.278 297.103 224.738 289.385 233.199 293.753 240.806ZM288.003 230.771L294.538 223.606 280.127 217.248 281.305 219.111ZM321.577 201.914L295.424 190.715 296.411 188.41 320.571 184.52 324.464 184.343 320.716 183.186 302.068 175.2 303.204 172.545 329.357 183.744 328.311 186.187 304.238 190.027 300.654 190.271 304.3 191.385 322.71 199.268ZM60.537 142.166C60.537 136.164 65.402 131.299 71.404 131.299 77.406 131.299 82.272 136.164 82.272 142.166 82.272 148.169 77.406 153.034 71.404 153.034 65.402 153.034 60.537 148.169 60.537 142.166ZM313.248 142.166C313.248 136.164 318.114 131.299 324.116 131.299 330.118 131.299 334.983 136.164 334.983 142.166 334.983 148.169 330.118 153.034 324.116 153.034 318.114 153.034 313.248 148.169 313.248 142.166Z" fill="#ed3b43" data-fill-palette-color="primary"></path></svg></g></svg></g></svg></g><g></g></svg></g><defs></defs></svg><rect width="395.52" height="280" fill="none" stroke="none" visibility="hidden"></rect></g></svg></g></svg>